<svg width="142" height="132" viewBox="0 0 142 132" fill="none" xmlns="http://www.w3.org/2000/svg">
<g clip-path="url(#clip0)">
<path d="M142 66C142.013 74.9343 140.067 83.7775 136.282 91.9899L136.047 92.4937C129.644 106.033 118.543 117.186 104.517 124.169C90.4915 131.151 74.3521 133.56 58.68 131.01C58.2536 130.94 57.8279 130.867 57.4029 130.791C53.0112 130 48.7107 128.821 44.5599 127.271C43.8856 127.019 43.2162 126.758 42.5517 126.488C42.098 126.304 41.6442 126.115 41.1947 125.919C28.8977 120.621 18.4863 112.166 11.1876 101.55C3.88893 90.9336 0.00721901 78.599 0 66C0 29.5496 31.7883 0 71 0C110.212 0 142 29.5496 142 66Z" fill="#DF5753"/>
<path opacity="0.2" d="M58.6805 131.01C58.2541 130.939 57.8284 130.867 57.4033 130.791C57.1261 123.31 56.1745 107.957 52.9291 91.8764C51.1541 83.0758 48.6901 74.0545 45.2724 65.99C44.1015 63.1996 42.7642 60.472 41.2666 57.82C37.8132 51.757 33.6246 46.6528 28.5454 43.1946L29.2932 42.2456C33.5175 45.1238 37.314 49.1645 40.6826 54.3677C41.693 55.926 42.6635 57.5883 43.5941 59.3548C44.5918 61.245 45.5434 63.2517 46.4488 65.3749C47.0264 66.7261 47.5845 68.1242 48.1229 69.5692C50.4672 75.8431 52.4599 83.0016 54.1012 91.0446C54.4646 92.8215 54.8105 94.642 55.1389 96.5062C57.6827 110.95 58.4494 124.304 58.6805 131.01Z" fill="black"/>
<path opacity="0.2" d="M42.5517 126.488C42.098 126.304 41.6443 126.115 41.1948 125.919C40.7557 121.487 39.9491 115.988 38.4745 110.769C37.8287 108.424 36.9995 106.127 35.9937 103.895C34.3111 100.234 32.1328 97.1214 29.3159 95.2019L30.0637 94.2549C33.013 96.2622 35.2879 99.4353 37.0461 103.147C39.027 107.33 40.3482 112.198 41.2284 116.849C41.8817 120.303 42.2934 123.641 42.5517 126.488Z" fill="black"/>
<path opacity="0.2" d="M21.481 43.1676C24.9717 43.1676 27.8014 40.5371 27.8014 37.2923C27.8014 34.0474 24.9717 31.417 21.481 31.417C17.9904 31.417 15.1606 34.0474 15.1606 37.2923C15.1606 40.5371 17.9904 43.1676 21.481 43.1676Z" fill="black"/>
<path opacity="0.2" d="M23.5162 93.7432C27.0068 93.7432 29.8366 91.1128 29.8366 87.8679C29.8366 84.6231 27.0068 81.9927 23.5162 81.9927C20.0255 81.9927 17.1958 84.6231 17.1958 87.8679C17.1958 91.1128 20.0255 93.7432 23.5162 93.7432Z" fill="black"/>
<path opacity="0.2" d="M46.5735 47.1608C45.2332 54.1899 48.1919 60.5546 48.1919 60.5546C48.1919 60.5546 53.3236 55.5229 54.6639 48.4938C56.0042 41.4648 53.0455 35.1001 53.0455 35.1001C53.0455 35.1001 47.9138 40.1318 46.5735 47.1608Z" fill="black"/>
<path opacity="0.2" d="M25.5677 63.8463C32.7801 66.2978 40.0275 64.7246 40.0275 64.7246C40.0275 64.7246 35.5813 59.1765 28.369 56.7249C21.1566 54.2734 13.9092 55.8466 13.9092 55.8466C13.9092 55.8466 18.3553 61.3947 25.5677 63.8463Z" fill="black"/>
<path opacity="0.2" d="M24.3452 108.633C29.4005 110.352 34.4875 109.231 34.4875 109.231C34.4875 109.231 31.3783 105.324 26.323 103.606C21.2677 101.887 16.1807 103.008 16.1807 103.008C16.1807 103.008 19.2899 106.915 24.3452 108.633Z" fill="black"/>
<path d="M70.8543 80.6153C86.1413 80.6153 98.5338 69.0955 98.5338 54.8851C98.5338 40.6746 86.1413 29.1548 70.8543 29.1548C55.5674 29.1548 43.1748 40.6746 43.1748 54.8851C43.1748 69.0955 55.5674 80.6153 70.8543 80.6153Z" fill="#D0CDE1"/>
<path d="M60.042 74.5851C60.042 74.5851 63.5019 89.8625 63.5019 91.4706C63.5019 93.0788 79.9366 100.315 79.9366 100.315L94.6414 97.9032L99.8313 83.4299C99.8313 83.4299 91.1815 71.3689 91.1815 66.5444L60.042 74.5851Z" fill="#D0CDE1"/>
<path d="M136.282 91.9896L136.047 92.4934C129.644 106.033 118.543 117.186 104.517 124.168C90.4913 131.151 74.3519 133.56 58.6798 131.01C58.2534 130.939 57.8277 130.866 57.4027 130.791C53.011 130 48.7105 128.821 44.5597 127.27C43.8854 127.018 43.216 126.757 42.5515 126.487C42.0978 126.304 41.644 126.114 41.1945 125.919C37.12 124.164 33.2339 122.054 29.5887 119.616L26.3076 110.768L28.1519 109.46L31.9456 106.767L35.9934 103.895L37.0458 103.147L52.9284 91.8764L54.1005 91.0445L62.3559 85.1866L62.358 85.1846C62.358 85.1846 71.2855 98.7068 84.2608 94.6863C97.2362 90.6657 96.9526 79.1372 96.9526 79.1372L136.282 91.9896Z" fill="#2F2E41"/>
<path d="M46.8506 34.1547C46.8506 34.1547 55.6388 16.4546 72.4827 20.5392C89.3266 24.6238 98.8471 30.7508 99.5795 36.8777C100.312 43.0047 99.2133 52.1951 99.2133 52.1951C99.2133 52.1951 97.3824 39.6008 85.6649 42.3239C73.9474 45.047 55.6388 43.0047 55.6388 43.0047L52.7094 67.5125C52.7094 67.5125 49.4138 63.0875 45.7521 65.8106C42.0904 68.5336 35.1331 39.6008 46.8506 34.1547Z" fill="#2F2E41"/>
<path d="M44.5601 127.271C43.8858 127.019 43.2165 126.758 42.552 126.487C42.0982 126.304 41.6445 126.115 41.195 125.919C34.4561 123.014 28.2479 119.147 22.7959 114.457C24.7263 112.012 26.3081 110.769 26.3081 110.769H39.2834L41.2286 116.849L44.5601 127.271Z" fill="#2F2E41"/>
<path d="M124.915 90.666L136.046 92.4937C133.068 98.8018 129.045 104.637 124.124 109.788L124.915 90.666Z" fill="#2F2E41"/>
</g>
<defs>
<clipPath id="clip0">
<rect width="142" height="132" fill="white"/>
</clipPath>
</defs>
</svg>
